<svg xmlns="http://www.w3.org/2000/svg" viewBox="0 0 512 512">
  <circle cx="256" cy="256" r="256" fill="#78c6f7"/>
  <circle cx="256" cy="256" r="230" fill="#a5d8ff"/>
  
  <!-- Clock Face -->
  <circle cx="256" cy="256" r="180" fill="white"/>
  <circle cx="256" cy="256" r="10" fill="#333"/>
  
  <!-- Clock Hands -->
  <rect x="256" y="256" width="8" height="100" rx="4" transform="rotate(-30, 256, 256)" fill="#333"/>
  <rect x="256" y="256" width="5" height="70" rx="2.5" transform="rotate(60, 256, 256)" fill="#333"/>
  
  <!-- Clock Markers -->
  <rect x="253" y="85" width="6" height="20" rx="3" fill="#333"/>
  <rect x="253" y="407" width="6" height="20" rx="3" fill="#333"/>
  <rect x="85" y="253" width="20" height="6" rx="3" fill="#333"/>
  <rect x="407" y="253" width="20" height="6" rx="3" fill="#333"/>
  
  <!-- Cute Face -->
  <circle cx="206" cy="256" r="20" fill="#ffb8c6"/>
  <circle cx="306" cy="256" r="20" fill="#ffb8c6"/>
  <path d="M226 326 Q256 356 286 326" stroke="#333" stroke-width="8" fill="none"/>
</svg>