<svg xmlns="http://www.w3.org/2000/svg" viewBox="0 0 100 100">
  <path fill="#e74c3c" d="M50,80c-22.1,0-40-17.9-40-40c0-12.4,5.7-23.5,14.5-30.9c2.8-2.3,6.3-3.6,10.1-3.6c4.7,0,8.9,2.1,11.8,5.4 c1.1,1.3,2,2.7,2.6,4.3c0.3,0.7,0.9,0.7,1.2,0c0.6-1.6,1.5-3.1,2.6-4.3c2.9-3.3,7.1-5.4,11.8-5.4c3.8,0,7.3,1.3,10.1,3.6 C83.3,16.5,89,27.6,89,40C89,62.1,72.1,80,50,80z" />
  <path fill="#27ae60" d="M50,15c0,0-6.5-15-14-15c-4.7,0-6,5-6,5s-8-1.5-10,7c0,0,6.5,4,10,4.5S50,15,50,15z" />
  <path fill="#27ae60" d="M50,15c0,0,6.5-15,14-15c4.7,0,6,5,6,5s8-1.5,10,7c0,0-6.5,4-10,4.5S50,15,50,15z" />
  <circle fill="#f39c12" cx="35" cy="40" r="5" />
  <circle fill="#f39c12" cx="65" cy="40" r="5" />
  <path fill="#f1c40f" d="M50,65c-8.3,0-15-6.7-15-15h30C65,58.3,58.3,65,50,65z" />
</svg>